PathFileType	4	(X/Y/Z)	RBDS028\RBDS028runT25.trc
DataRate	CameraRate	NumFrames	NumMarkers	Units	OrigDataRate	OrigDataStartFrame	OrigNumFrames
150.000000	150.000000	5	33	mm	150.000000	0	4500
Frame#	Time	L.ASIS			L.Heel.Bottom			L.Heel.Lateral			L.Heel.Top			L.Iliac.Crest			L.MT1			L.MT5			L.PSIS			L.Shank.Bottom.Lateral			L.Shank.Bottom.Medial			L.Shank.Top.Lateral			L.Shank.Top.Medial			L.Thigh.Bottom.Lateral			L.Thigh.Bottom.Medial			L.Thigh.Top.Lateral			L.Thigh.Top.Medial			R.ASIS			R.ASY			R.Heel.Bottom			R.Heel.Lateral			R.Heel.Top			R.Iliac.Crest			R.MT1			R.MT5			R.PSIS			R.Shank.Bottom.Lateral			R.Shank.Bottom.Medial			R.Shank.Top.Lateral			R.Shank.Top.Medial			R.Thigh.Bottom.Lateral			R.Thigh.Bottom.Medial			R.Thigh.Top.Lateral			R.Thigh.Top.Medial			
		X1	Y1	Z1	X2	Y2	Z2	X3	Y3	Z3	X4	Y4	Z4	X5	Y5	Z5	X6	Y6	Z6	X7	Y7	Z7	X8	Y8	Z8	X9	Y9	Z9	X10	Y10	Z10	X11	Y11	Z11	X12	Y12	Z12	X13	Y13	Z13	X14	Y14	Z14	X15	Y15	Z15	X16	Y16	Z16	X17	Y17	Z17	X18	Y18	Z18	X19	Y19	Z19	X20	Y20	Z20	X21	Y21	Z21	X22	Y22	Z22	X23	Y23	Z23	X24	Y24	Z24	X25	Y25	Z25	X26	Y26	Z26	X27	Y27	Z27	X28	Y28	Z28	X29	Y29	Z29	X30	Y30	Z30	X31	Y31	Z31	X32	Y32	Z32	X33	Y33	Z33	

1	0	2033.623151707845	841.8033603359528	898.1944397982246	1917.607845566714	24.76124359485696	996.3701111231087	1946.160900843123	44.05761244401646	953.414003429228	1929.932281949613	68.57469989199731	1000.405146827534	1962.238250968623	880.1341581406084	875.0261420510743	2140.095475150409	33.63968079457829	1033.611064761133	2098.769303334353	33.10882749531024	924.0266854889317	1885.561077532741	846.3981832168367	987.9668454226219	2019.578406879846	141.3927727653695	935.9314478866419	1979.773068833219	157.1428538127008	964.0893668131151	2031.239708981668	216.3822081448251	907.2331867367777	1996.442917122251	236.8814478050481	941.9958907261251	2093.391171686091	521.3015353906538	861.849864446511	2034.01120345643	497.4717510940548	896.4029591061452	2046.833034708701	620.3075312670071	849.3186575860616	1989.525085214336	596.7179718451503	880.931140178154	2056.761210246095	833.1580655765104	1135.936020849071	1648.315500370718	217.5884089929196	1061.62559217559	1591.537211216836	391.6422855809956	1015.94696071513	1603.063081278018	368.3959816023218	1064.538736758608	1635.409090301594	383.1323054726232	1025.692599616083	2015.652173780782	894.0270595181246	1159.206576957229	1616.27802353556	172.2952793002473	1013.421913718268	1586.025852946599	221.7044831210899	1110.924634533221	1898.161211568661	845.2278722510695	1078.800978381614	1715.727901139858	346.2997815473387	1103.346525116923	1717.114370764803	382.3891203071771	1060.514998215691	1787.911473861098	377.4378731593437	1127.280929955945	1788.196288921814	410.272793685573	1084.812065900667	2009.626292891809	481.5884807325201	1176.444881904967	1955.556251472088	477.368317487478	1130.43339190754	1994.370289612386	590.7208189076132	1184.543771307746	1940.265600655285	585.7249177971607	1142.928080704509	
2	0.006666666666666667	2030.985737681155	839.1961833454012	898.4673000298136	1901.561377611144	25.44131843183623	995.6361318001707	1930.166262033548	44.44459693138153	952.5368903063863	1914.02024080356	69.22833948696905	999.3877877569525	1957.955643134736	874.3686014588202	875.7095507497419	2123.994006376656	33.59414174487728	1032.871497405719	2082.640624045769	32.7705958772902	923.215786239668	1882.920558366905	843.5515894924754	989.3916522818703	2006.348641217744	141.086083831469	934.4290356838492	1966.959241681713	158.1970913556817	962.2552597919868	2020.393169596824	215.368375830674	905.2784426712526	1986.191997631654	237.1413172737939	939.759137923962	2088.655960986773	518.3366378160429	859.3950351872775	2028.938154562588	494.5740905778383	893.437391372596	2042.933075782192	617.9096068791464	848.1760510838296	1985.511443414623	594.4896124091722	879.7683954465937	2053.975445401806	828.9896673382949	1136.536854356013	1660.889640650352	217.9731976557826	1062.720402494521	1602.705212755042	392.3529386288596	1019.926733927449	1615.194040455496	368.7809759311145	1068.114785622723	1646.835517380407	384.0572401553432	1028.61856378392	2011.329000907693	889.584432448955	1160.009885137553	1627.829652586346	173.0948070765783	1014.426932667627	1599.360203746242	221.3172887936657	1113.176572282945	1895.490202648477	841.9773105624259	1079.840662903152	1728.764147026227	345.7074522550057	1105.252861493817	1729.874791058907	382.317347363589	1063.042677009365	1801.190604946999	375.6527577199605	1129.116380435392	1801.525514218515	409.039956387242	1087.037722058088	2019.389999796546	478.3543176186502	1177.383203978819	1964.747375943037	471.8829670589839	1132.467921070766	2000.015387660491	586.9050289370223	1185.511939587798	1945.541015453162	579.4666272497682	1145.075323502305	
3	0.01333333333333333	2028.408519884213	836.7147927785296	898.7247677604906	1885.458592505789	26.14858354498662	994.9560407974882	1914.115343183447	44.8657153797926	951.7211038280917	1898.063605000596	69.90434191300848	998.4401961357137	1953.771252335215	868.9564592457633	876.342794159534	2107.839263470255	33.5421962395256	1032.178581607154	2066.438987503298	32.45438870934354	922.4544610761686	1880.320128013676	840.8920229919851	990.6831886211041	1992.9610275164	140.82277177137	933.0161855583661	1954.001139262265	159.2555496778805	960.5450776177837	2009.314730600661	214.4071266212597	903.42053293708	1975.721455025559	237.4187709955376	937.650137525118	2083.674327171848	515.4351463059463	856.9980624830667	2023.610529240142	491.8151581860441	890.5547043416753	2038.877224178937	615.5951303400756	847.0423646260439	1981.334239056555	592.4117162962519	878.6338206822846	2051.182428305945	825.034222172594	1137.122489680369	1673.682604129247	218.1171390852388	1063.81809860687	1613.851402350014	392.6873323556682	1023.922370825459	1627.33927385136	368.8117791326741	1071.700371320512	1658.240015348883	384.673620950888	1031.570262058137	2007.000806518239	885.3833822439666	1160.783047966722	1639.704029587841	173.6005721707087	1015.439776127466	1612.939475901436	220.6008957525425	1115.418164474306	1892.835506681001	838.9237290246996	1080.772133675373	1741.801840341067	344.9975338923355	1107.16605528569	1742.592229162147	382.1053673627928	1065.547325342069	1814.442423427535	373.8950293892023	1130.920519395825	1814.761469246218	407.8103679461109	1089.220417542743	2029.087990320649	475.4605905251068	1178.301490515594	1973.924261465706	466.7400735563246	1134.443669251875	2005.621835088238	583.3775905730303	1186.455099316726	1950.814952035018	573.5106393828132	1147.171942774284	
4	0.02	2025.939759360157	834.4764566665689	898.9468643028831	1869.243921611346	26.89595773655732	994.3786501314565	1897.952376395404	45.34143366607832	951.0211968488417	1882.014029600775	70.61357668087538	997.6237505010401	1949.779026304921	864.2090238723391	876.8775294624357	2091.576172917416	33.4786822893112	1031.577469357912	2050.099778149975	32.17840782596753	921.7902280699692	1877.792409224018	838.5864982437771	991.7250842526762	1979.269160308711	140.6384704822844	931.7751238905113	1940.762166617034	160.3200222424763	959.069622798086	1997.792967761225	213.5426443609252	901.7499520171393	1964.827730383674	237.7269962838951	935.7849078883693	2078.222948733523	512.6544332690582	854.7257175635358	2017.796662033354	489.3210999515327	887.8438241288907	2034.52145816326	613.4399051580938	845.9332538966952	1976.841603339853	590.6199999113873	877.5603226700243	2048.382342543947	821.4852575093729	1137.670413328217	1686.886417925768	217.8013173721641	1064.927266653731	1624.933584011282	392.3060042904092	1027.935571720679	1639.491066234204	368.1729452786251	1075.293039758684	1669.582529343125	384.7026802170309	1034.561027455519	2002.673397964838	881.6390624246509	1161.492013597686	1652.177303212513	173.5365830171114	1016.476294334345	1626.966458931469	219.260366029228	1117.641643338085	1890.211305503259	836.2426456055305	1081.499452823457	1754.831077222826	344.0689362209097	1109.088218775775	1755.213519008199	381.6325127858522	1068.005092427148	1827.634749878768	372.1982736309446	1132.664042374772	1827.808070555526	406.5982136837753	1091.321034476874	2038.666618020364	473.2252305814116	1179.180661757312	1983.080864305685	462.2592125566242	1136.307322950013	2011.160095700602	580.4060946916186	1187.348599432848	1956.092942883438	568.1380398680928	1149.169015598125	
5	0.02666666666666667	2023.616509008411	832.5822894273715	899.1128095381368	1852.886479993756	27.69672513962989	993.9402690134108	1881.646814961638	45.88896525952544	950.4773897003882	1865.845860797134	71.36800966609249	996.9823633908823	1946.07127748752	860.3715413515024	877.2671518849296	2075.174149935622	33.40182995247456	1031.10440174009	2033.586239524283	31.95718532600425	921.2612281057999	1875.366304230657	836.7733245192488	992.4291621348356	1965.172462600019	140.5680089790349	930.7703693812622	1927.145583338237	161.3971235981681	957.9133905546023	1985.675532266251	212.8189411435142	900.3411805212942	1953.360285892366	238.0836731937573	934.2555650788652	2072.13455526651	510.0517359923767	852.6449241524338	2011.323582030487	487.203121043881	885.3881043768304	2029.75816336106	611.5129857982726	844.8684857424907	1971.920061169117	589.2300491641856	876.5807045433506	2045.587213952497	818.5048698791164	1138.153718795964	1700.640926447656	216.8514377207137	1066.05768776816	1635.906989387448	390.9273735651665	1031.947075598783	1651.627670719663	366.6094675508937	1078.873523221462	1680.81612927837	383.9118591601225	1037.586073540911	1998.374753510011	878.5240455553718	1162.101548135986	1665.460045593609	172.6783272885417	1017.554182226686	1641.586201993153	217.0668572513029	1119.83896555557	1887.634053269441	834.0775177626527	1081.947881101706	1767.827776250255	342.8409281710215	1111.013009471189	1767.677272773704	380.7993648575381	1070.388819189927	1840.719895050636	370.5922070204011	1134.319826207073	1840.566081736529	405.4154972611644	1093.303416840317	2048.069009181758	471.9117881612497	1180.001149187556	1992.196540440116	458.7073517990392	1138.012885878579	2016.597695214143	578.2137027565633	1188.166645472112	1961.371250237657	563.5878056337486	1151.019098974567	
